<svg width="203" height="25" viewBox="0 0 203 25" fill="none" xmlns="http://www.w3.org/2000/svg">
<path d="M24.1016 0.0803223C17.7913 0.0974419 11.745 2.61461 7.28747 7.08036C2.82994 11.5461 0.32457 17.5963 0.320312 23.9054H5.40014C5.40503 20.2456 6.47942 16.6669 8.49132 13.6095C10.5032 10.552 13.3649 8.1489 16.7245 6.69569C15.2451 8.17517 14.2377 10.06 13.8297 12.1119C13.4216 14.1638 13.6312 16.2906 14.4321 18.2233C15.2329 20.1561 16.589 21.8081 18.3289 22.9703C20.0687 24.1325 22.1143 24.7529 24.2067 24.7529C26.2992 24.7529 28.3446 24.1325 30.0845 22.9703C31.8243 21.8081 33.1804 20.1561 33.9813 18.2233C34.7822 16.2906 34.9919 14.1638 34.5838 12.1119C34.1758 10.06 33.1684 8.17517 31.6889 6.69569C35.0485 8.1489 37.9101 10.552 39.922 13.6095C41.9339 16.6669 43.0084 20.2456 43.0133 23.9054H48.0931C48.0846 17.5892 45.5712 11.5342 41.1041 7.06797C36.637 2.60176 30.5807 0.0888808 24.2633 0.0803223M29.9579 19.9103C28.4459 21.3921 26.413 22.2221 24.2957 22.2221C22.1784 22.2221 20.1455 21.3921 18.6335 19.9103L21.319 17.2091C21.7037 17.6371 22.1717 17.9822 22.6943 18.2235C23.2169 18.4647 23.7831 18.5971 24.3585 18.6124C24.9339 18.6277 25.5064 18.5257 26.041 18.3125C26.5757 18.0994 27.0613 17.7796 27.4683 17.3727C27.8753 16.9657 28.1952 16.4802 28.4084 15.9456C28.6215 15.4111 28.7235 14.8387 28.7082 14.2635C28.6929 13.6882 28.5606 13.122 28.3193 12.5996C28.078 12.0771 27.7328 11.6093 27.3047 11.2246L30.0064 8.53959C31.4885 10.0513 32.3187 12.0838 32.3187 14.2007C32.3187 16.3175 31.4885 18.35 30.0064 19.8618" fill="#585857"/>
<path d="M81.6687 12.3442C81.7031 14.1299 81.4295 15.9082 80.8598 17.601C80.3699 19.031 79.5938 20.3464 78.5788 21.4667C77.5964 22.5062 76.398 23.3178 75.0681 23.8443C73.6526 24.4046 72.1417 24.6847 70.6193 24.6692C69.0984 24.6851 67.5884 24.4106 66.1704 23.8605C64.8461 23.3475 63.6525 22.5464 62.6761 21.5152C61.6573 20.4066 60.8853 19.0946 60.4111 17.6657C59.3437 14.2424 59.3437 10.5755 60.4111 7.15222C60.901 5.72213 61.6772 4.40681 62.6923 3.28651C63.6776 2.25057 64.8751 1.43954 66.2028 0.908856C67.6236 0.347322 69.1401 0.067173 70.6679 0.0839645C72.1834 0.0698046 73.6877 0.344267 75.1005 0.89269C76.4221 1.40198 77.6113 2.20378 78.5788 3.23799C79.5917 4.35087 80.3629 5.66162 80.8436 7.08751C81.42 8.779 81.6992 10.5575 81.6687 12.3442ZM74.8255 12.3442C74.9297 10.6549 74.548 8.97114 73.7255 7.49187C73.3934 6.97517 72.9321 6.55414 72.3873 6.27044C71.8425 5.98675 71.2331 5.85023 70.6193 5.87442C70.0074 5.84817 69.3995 5.98394 68.8569 6.26795C68.3144 6.55196 67.8564 6.97416 67.5294 7.49187C66.8251 9.01261 66.4603 10.6684 66.4603 12.3442C66.4603 14.0201 66.8251 15.6758 67.5294 17.1966C67.8628 17.7157 68.3266 18.1383 68.8745 18.4221C69.4224 18.706 70.0352 18.8411 70.6517 18.814C71.2608 18.8374 71.8654 18.7003 72.4049 18.4164C72.9444 18.1325 73.3998 17.7119 73.7255 17.1966C74.5303 15.734 74.9112 14.076 74.8255 12.4089V12.3442Z" fill="#585857"/>
<path d="M104.657 20.803C104.094 21.5495 103.423 22.2089 102.667 22.7601C101.814 23.3551 100.876 23.8186 99.8849 24.1349C98.6866 24.5105 97.4356 24.6907 96.1801 24.6687C94.5673 24.6936 92.9678 24.3738 91.4886 23.7306C90.1837 23.1287 89.0246 22.2513 88.0912 21.1588C87.1385 20.0229 86.4333 18.7008 86.0205 17.2769C85.5411 15.7043 85.3012 14.0686 85.3087 12.4246C85.2856 10.6767 85.5591 8.93753 86.1176 7.28107C86.5974 5.85346 87.3625 4.53826 88.3663 3.41536C89.3187 2.366 90.4893 1.53788 91.796 0.989184C93.1946 0.406273 94.6973 0.114584 96.2125 0.131936C97.4794 0.110449 98.7431 0.268358 99.9657 0.600986C100.957 0.871302 101.886 1.33285 102.7 1.95964C103.469 2.57702 104.121 3.3276 104.625 4.17557C105.181 5.12188 105.647 6.11829 106.016 7.15167L100.03 9.49697C99.8201 8.94704 99.6098 8.44564 99.3834 7.99275C99.1709 7.58162 98.9043 7.2008 98.5907 6.86052C98.3048 6.55422 97.9575 6.31172 97.5715 6.14886C97.1316 5.96401 96.657 5.87575 96.1801 5.89006C95.5524 5.87575 94.9341 6.04435 94.4006 6.3753C93.8867 6.72866 93.465 7.20011 93.1711 7.75012C92.8083 8.38616 92.5617 9.08177 92.4431 9.80429C92.2941 10.6696 92.2238 11.5466 92.2328 12.4246C92.2258 13.281 92.2961 14.1363 92.4431 14.9801C92.566 15.7067 92.8123 16.4068 93.1711 17.0505C93.4602 17.6082 93.8825 18.086 94.4006 18.4415C94.949 18.7962 95.592 18.9766 96.2449 18.9591C96.7068 18.9707 97.167 18.8995 97.6037 18.7488C97.9964 18.6183 98.3554 18.403 98.6553 18.118C99.0067 17.8087 99.3167 17.4553 99.5775 17.0667C99.8687 16.6461 100.176 16.1609 100.5 15.5948L106.081 18.5547C105.663 19.3382 105.187 20.0897 104.657 20.803Z" fill="#585857"/>
<path d="M110.611 24.2805V0.455444H117.357V24.2805H110.611Z" fill="#585857"/>
<path d="M142.091 16.9696C142.122 18.18 141.873 19.3812 141.363 20.4795C140.895 21.4307 140.194 22.2485 139.325 22.8571C138.38 23.5043 137.32 23.9654 136.203 24.2158C134.91 24.5239 133.584 24.676 132.255 24.6687C128.707 24.6567 125.233 23.6539 122.225 21.7734L125.461 16.5976C125.949 16.92 126.457 17.2117 126.981 17.471C127.564 17.746 128.162 18.0048 128.793 18.2312C129.407 18.4537 130.033 18.6374 130.67 18.7812C131.255 18.9045 131.851 18.9695 132.449 18.9752C133.273 19.0334 134.1 18.9177 134.876 18.6356C135.093 18.5287 135.272 18.3588 135.391 18.148C135.509 17.9372 135.561 17.6956 135.539 17.4548C135.54 17.2371 135.479 17.0237 135.361 16.8402C135.189 16.6154 134.968 16.4328 134.714 16.3065C134.312 16.1034 133.896 15.9304 133.469 15.7889C132.951 15.6271 132.288 15.4492 131.495 15.2713C130.226 14.9751 128.973 14.6134 127.742 14.1876C126.781 13.8559 125.884 13.3637 125.089 12.7319C124.393 12.1727 123.839 11.458 123.471 10.6454C123.102 9.67523 122.926 8.64222 122.953 7.60456C122.938 6.54831 123.165 5.50263 123.616 4.54757C124.053 3.61796 124.701 2.80361 125.509 2.16992C126.386 1.46854 127.392 0.946433 128.47 0.633343C129.729 0.25612 131.038 0.0707346 132.352 0.0834151C134.153 0.0494777 135.949 0.295008 137.675 0.811264C139.163 1.27217 140.57 1.95956 141.849 2.84924L138.613 8.02508C137.61 7.34632 136.522 6.8025 135.378 6.40763C134.272 6.01311 133.106 5.81601 131.932 5.82535C131.248 5.7467 130.556 5.88835 129.958 6.22971C129.808 6.35993 129.688 6.52159 129.607 6.70325C129.526 6.88492 129.485 7.08218 129.489 7.28107C129.484 7.49676 129.552 7.70771 129.683 7.87952C129.845 8.08917 130.056 8.2558 130.298 8.36476C130.685 8.54158 131.085 8.68761 131.495 8.80148C131.996 8.94705 132.627 9.10878 133.404 9.2867C134.724 9.596 136.021 9.99593 137.287 10.4836C138.259 10.8474 139.166 11.3663 139.972 12.0202C140.679 12.5748 141.235 13.2978 141.59 14.1229C141.939 15.0306 142.109 15.9972 142.091 16.9696Z" fill="#585857"/>
<path d="M147.043 24.2805V0.455444H165.275V6.01948H153.579V9.25439H160.616V14.7052H153.579V18.7812H165.518V24.329L147.043 24.2805Z" fill="#585857"/>
<path d="M183.587 24.2805H176.954L168.752 0.455444H176.178L177.909 6.92525C178.119 7.66928 178.329 8.54271 178.572 9.43231C178.815 10.3219 179.041 11.2762 179.252 12.2143C179.462 13.1524 179.672 14.0582 179.866 14.8831C180.06 15.708 180.206 16.5006 180.319 17.002C180.432 16.4359 180.594 15.7242 180.788 14.8831C180.983 14.042 181.177 13.1686 181.403 12.2305C181.63 11.2924 181.84 10.3704 182.083 9.44847C182.325 8.52652 182.536 7.66928 182.746 6.92525L184.477 0.455444H191.838L183.587 24.2805Z" fill="#585857"/>
<path d="M196.19 24.2805V0.455444H203.001V24.2805H196.19Z" fill="#585857"/>
</svg>
